<svg width="24" height="24" viewBox="0 0 24 24" fill="none" xmlns="http://www.w3.org/2000/svg">
<path d="M21 4H3C2.73478 4 2.48043 4.10536 2.29289 4.29289C2.10536 4.48043 2 4.73478 2 5V19C2 19.2652 2.10536 19.5196 2.29289 19.7071C2.48043 19.8946 2.73478 20 3 20H21C21.2652 20 21.5196 19.8946 21.7071 19.7071C21.8946 19.5196 22 19.2652 22 19V5C22 4.73478 21.8946 4.48043 21.7071 4.29289C21.5196 4.10536 21.2652 4 21 4ZM20 15C19.2044 15 18.4413 15.3161 17.8787 15.8787C17.3161 16.4413 17 17.2044 17 18H7C7 17.2044 6.68393 16.4413 6.12132 15.8787C5.55871 15.3161 4.79565 15 4 15V9C4.79565 9 5.55871 8.68393 6.12132 8.12132C6.68393 7.55871 7 6.79565 7 6H17C17 6.79565 17.3161 7.55871 17.8787 8.12132C18.4413 8.68393 19.2044 9 20 9V15Z" fill="#28C76F"/>
<path d="M12 8C9.794 8 8 9.794 8 12C8 14.206 9.794 16 12 16C14.206 16 16 14.206 16 12C16 9.794 14.206 8 12 8ZM12 14C10.897 14 10 13.103 10 12C10 10.897 10.897 10 12 10C13.103 10 14 10.897 14 12C14 13.103 13.103 14 12 14Z" fill="#28C76F"/>
</svg>
