<svg width="21" height="20" viewBox="0 0 21 20" fill="none" xmlns="http://www.w3.org/2000/svg">
<path d="M18.4903 5.60839C18.4736 5.60839 18.4486 5.60839 18.4236 5.60839C14.0153 5.16673 9.61529 5.00006 5.25695 5.44173L3.55695 5.60839C3.20695 5.64173 2.89862 5.39173 2.86529 5.04173C2.83195 4.69173 3.08195 4.39173 3.42362 4.35839L5.12362 4.19173C9.55695 3.74173 14.0486 3.91673 18.5486 4.35839C18.8903 4.39173 19.1403 4.70006 19.107 5.04173C19.082 5.36673 18.807 5.60839 18.4903 5.60839Z" fill="#EA5455"/>
<path d="M8.07386 4.76675C8.04053 4.76675 8.00719 4.76675 7.96553 4.75842C7.63219 4.70008 7.39886 4.37508 7.45719 4.04175L7.64053 2.95008C7.77386 2.15008 7.95719 1.04175 9.89886 1.04175H12.0822C14.0322 1.04175 14.2155 2.19175 14.3405 2.95841L14.5239 4.04175C14.5822 4.38342 14.3489 4.70842 14.0155 4.75842C13.6739 4.81675 13.3489 4.58342 13.2989 4.25008L13.1155 3.16675C12.9989 2.44175 12.9739 2.30008 12.0905 2.30008H9.90719C9.02386 2.30008 9.00719 2.41675 8.88219 3.15841L8.69053 4.24175C8.64053 4.55008 8.37386 4.76675 8.07386 4.76675Z" fill="#EA5455"/>
<path d="M13.6652 18.9584H8.31523C5.4069 18.9584 5.29023 17.3501 5.19856 16.0501L4.6569 7.6584C4.6319 7.31673 4.89856 7.01673 5.24023 6.99173C5.59023 6.97506 5.8819 7.2334 5.9069 7.57506L6.44856 15.9667C6.54023 17.2334 6.57356 17.7084 8.31523 17.7084H13.6652C15.4152 17.7084 15.4486 17.2334 15.5319 15.9667L16.0736 7.57506C16.0986 7.2334 16.3986 6.97506 16.7402 6.99173C17.0819 7.01673 17.3486 7.3084 17.3236 7.6584L16.7819 16.0501C16.6902 17.3501 16.5736 18.9584 13.6652 18.9584Z" fill="#EA5455"/>
<path d="M12.3736 14.375H9.59863C9.25697 14.375 8.97363 14.0917 8.97363 13.75C8.97363 13.4083 9.25697 13.125 9.59863 13.125H12.3736C12.7153 13.125 12.9986 13.4083 12.9986 13.75C12.9986 14.0917 12.7153 14.375 12.3736 14.375Z" fill="#EA5455"/>
<path d="M13.0739 11.0417H8.90723C8.56556 11.0417 8.28223 10.7584 8.28223 10.4167C8.28223 10.0751 8.56556 9.79175 8.90723 9.79175H13.0739C13.4156 9.79175 13.6989 10.0751 13.6989 10.4167C13.6989 10.7584 13.4156 11.0417 13.0739 11.0417Z" fill="#EA5455"/>
</svg>
