<svg width="15" height="15" viewBox="0 0 15 15" fill="none" xmlns="http://www.w3.org/2000/svg">
<path d="M9.375 14.2188H5.625C2.23125 14.2188 0.78125 12.7688 0.78125 9.375V5.625C0.78125 2.23125 2.23125 0.78125 5.625 0.78125H6.875C7.13125 0.78125 7.34375 0.99375 7.34375 1.25C7.34375 1.50625 7.13125 1.71875 6.875 1.71875H5.625C2.74375 1.71875 1.71875 2.74375 1.71875 5.625V9.375C1.71875 12.2563 2.74375 13.2813 5.625 13.2813H9.375C12.2563 13.2813 13.2813 12.2563 13.2813 9.375V8.125C13.2813 7.86875 13.4938 7.65625 13.75 7.65625C14.0063 7.65625 14.2188 7.86875 14.2188 8.125V9.375C14.2188 12.7688 12.7688 14.2188 9.375 14.2188Z" fill="#5E5873"/>
<path d="M5.31258 11.0563C4.93133 11.0563 4.58133 10.9188 4.32508 10.6688C4.01883 10.3626 3.88758 9.91885 3.95633 9.4501L4.22508 7.56885C4.27508 7.20635 4.51258 6.7376 4.76883 6.48135L9.69383 1.55635C10.9376 0.312598 12.2001 0.312598 13.4438 1.55635C14.1251 2.2376 14.4313 2.93135 14.3688 3.6251C14.3126 4.1876 14.0126 4.7376 13.4438 5.3001L8.51883 10.2251C8.26258 10.4813 7.79383 10.7188 7.43133 10.7688L5.55008 11.0376C5.46883 11.0563 5.38758 11.0563 5.31258 11.0563ZM10.3563 2.21885L5.43133 7.14385C5.31258 7.2626 5.17508 7.5376 5.15008 7.7001L4.88133 9.58135C4.85633 9.7626 4.89383 9.9126 4.98758 10.0063C5.08133 10.1001 5.23133 10.1376 5.41258 10.1126L7.29383 9.84385C7.45633 9.81885 7.73758 9.68135 7.85008 9.5626L12.7751 4.6376C13.1813 4.23135 13.3938 3.86885 13.4251 3.53135C13.4626 3.1251 13.2501 2.69385 12.7751 2.2126C11.7751 1.2126 11.0876 1.49385 10.3563 2.21885Z" fill="#5E5873"/>
<path d="M12.4062 6.14368C12.3625 6.14368 12.3187 6.13743 12.2812 6.12493C10.6375 5.66243 9.33122 4.35618 8.86872 2.71243C8.79997 2.46243 8.94372 2.20618 9.19372 2.13118C9.44372 2.06243 9.69997 2.20618 9.76872 2.45618C10.1437 3.78743 11.2 4.84368 12.5312 5.21868C12.7812 5.28743 12.925 5.54993 12.8562 5.79993C12.8 6.01243 12.6125 6.14368 12.4062 6.14368Z" fill="#5E5873"/>
</svg>
