<svg width="24" height="24" viewBox="0 0 24 24" fill="none" xmlns="http://www.w3.org/2000/svg">
<path d="M10.9298 22.75C10.4498 22.75 9.96985 22.63 9.52985 22.39C8.63985 21.89 8.1098 21 8.1098 19.99V14.64C8.1098 14.13 7.77979 13.38 7.46979 12.99L3.6698 9.00003C3.0398 8.37003 2.5498 7.27002 2.5498 6.46002V4.14005C2.5498 2.53005 3.76982 1.27002 5.31982 1.27002H18.6598C20.1898 1.27002 21.4298 2.51004 21.4298 4.04004V6.26004C21.4298 7.31004 20.7998 8.52002 20.1998 9.11002C19.9098 9.40002 19.4298 9.40002 19.1398 9.11002C18.8498 8.82002 18.8498 8.34002 19.1398 8.05002C19.5098 7.68002 19.9298 6.85004 19.9298 6.26004V4.04004C19.9298 3.34004 19.3598 2.77002 18.6598 2.77002H5.31982C4.60982 2.77002 4.0498 3.37005 4.0498 4.14005V6.46002C4.0498 6.83002 4.34981 7.56004 4.73981 7.95004L8.58984 12C9.09984 12.63 9.59979 13.69 9.59979 14.64V19.99C9.59979 20.65 10.0498 20.97 10.2498 21.08C10.6798 21.32 11.1898 21.31 11.5898 21.07L12.9898 20.17C13.3398 19.95 13.7998 20.05 14.0298 20.4C14.2498 20.75 14.1498 21.21 13.8098 21.44L12.3998 22.35C11.9498 22.61 11.4398 22.75 10.9298 22.75Z" fill="white"/>
<path d="M13.6902 18.89C13.3102 18.89 12.9502 18.75 12.6902 18.49C12.3802 18.18 12.2402 17.73 12.3102 17.26L12.5002 15.91C12.5502 15.56 12.7602 15.15 13.0102 14.9L16.5502 11.36C17.0302 10.88 17.5002 10.63 18.0102 10.58C18.6302 10.52 19.2502 10.78 19.8302 11.36C20.4102 11.94 20.6702 12.55 20.6102 13.18C20.5602 13.68 20.3002 14.16 19.8302 14.64L16.2902 18.18C16.0402 18.43 15.6202 18.64 15.2702 18.69L13.9202 18.88C13.8402 18.89 13.7702 18.89 13.6902 18.89ZM18.1802 12.06C18.1702 12.06 18.1602 12.06 18.1502 12.06C18.0102 12.07 17.8202 12.19 17.6102 12.41L14.0702 15.95C14.0402 15.98 13.9902 16.08 13.9902 16.12L13.8102 17.37L15.0602 17.19C15.1002 17.18 15.2002 17.13 15.2302 17.1L18.7702 13.56C18.9802 13.35 19.1102 13.16 19.1202 13.02C19.1402 12.82 18.9402 12.58 18.7702 12.41C18.6102 12.25 18.3802 12.06 18.1802 12.06Z" fill="white"/>
<path d="M18.7897 15.36C18.7197 15.36 18.6498 15.35 18.5898 15.33C17.2698 14.96 16.2197 13.91 15.8497 12.59C15.7397 12.19 15.9697 11.78 16.3697 11.66C16.7697 11.55 17.1797 11.78 17.2897 12.18C17.5197 13 18.1697 13.65 18.9897 13.88C19.3897 13.99 19.6198 14.41 19.5098 14.81C19.4198 15.15 19.1197 15.36 18.7897 15.36Z" fill="white"/>
</svg>
