<svg width="24" height="24" viewBox="0 0 24 24" fill="none" xmlns="http://www.w3.org/2000/svg">
<path d="M16.87 19.0601H8.87C5.7 19.0601 3.12 16.4801 3.12 13.3101C3.12 10.1401 5.7 7.56006 8.87 7.56006H19.87C20.28 7.56006 20.62 7.90006 20.62 8.31006C20.62 8.72006 20.28 9.06006 19.87 9.06006H8.87C6.53 9.06006 4.62 10.9701 4.62 13.3101C4.62 15.6501 6.53 17.5601 8.87 17.5601H16.87C17.28 17.5601 17.62 17.9001 17.62 18.3101C17.62 18.7201 17.29 19.0601 16.87 19.0601Z" fill="white"/>
<path d="M17.57 11.5599C17.38 11.5599 17.19 11.4899 17.04 11.3399C16.75 11.0499 16.75 10.5699 17.04 10.2799L19.07 8.24988L17.04 6.21988C16.75 5.92988 16.75 5.44988 17.04 5.15988C17.33 4.86988 17.81 4.86988 18.1 5.15988L20.66 7.71988C20.95 8.00988 20.95 8.48988 20.66 8.77988L18.1 11.3399C17.95 11.4899 17.76 11.5599 17.57 11.5599Z" fill="white"/>
</svg>
