<svg width="24" height="24" viewBox="0 0 24 24" fill="none" xmlns="http://www.w3.org/2000/svg">
<path d="M2.25 1.5C2.05109 1.5 1.86032 1.57902 1.71967 1.71967C1.57902 1.86032 1.5 2.05109 1.5 2.25V6.75C1.5 6.94891 1.42098 7.13968 1.28033 7.28033C1.13968 7.42098 0.948912 7.5 0.75 7.5C0.551088 7.5 0.360322 7.42098 0.21967 7.28033C0.0790176 7.13968 0 6.94891 0 6.75V2.25C0 1.65326 0.237053 1.08097 0.65901 0.65901C1.08097 0.237053 1.65326 0 2.25 0L6.75 0C6.94891 0 7.13968 0.0790176 7.28033 0.21967C7.42098 0.360322 7.5 0.551088 7.5 0.75C7.5 0.948912 7.42098 1.13968 7.28033 1.28033C7.13968 1.42098 6.94891 1.5 6.75 1.5H2.25ZM16.5 0.75C16.5 0.551088 16.579 0.360322 16.7197 0.21967C16.8603 0.0790176 17.0511 0 17.25 0L21.75 0C22.3467 0 22.919 0.237053 23.341 0.65901C23.7629 1.08097 24 1.65326 24 2.25V6.75C24 6.94891 23.921 7.13968 23.7803 7.28033C23.6397 7.42098 23.4489 7.5 23.25 7.5C23.0511 7.5 22.8603 7.42098 22.7197 7.28033C22.579 7.13968 22.5 6.94891 22.5 6.75V2.25C22.5 2.05109 22.421 1.86032 22.2803 1.71967C22.1397 1.57902 21.9489 1.5 21.75 1.5H17.25C17.0511 1.5 16.8603 1.42098 16.7197 1.28033C16.579 1.13968 16.5 0.948912 16.5 0.75V0.75ZM0.75 16.5C0.948912 16.5 1.13968 16.579 1.28033 16.7197C1.42098 16.8603 1.5 17.0511 1.5 17.25V21.75C1.5 21.9489 1.57902 22.1397 1.71967 22.2803C1.86032 22.421 2.05109 22.5 2.25 22.5H6.75C6.94891 22.5 7.13968 22.579 7.28033 22.7197C7.42098 22.8603 7.5 23.0511 7.5 23.25C7.5 23.4489 7.42098 23.6397 7.28033 23.7803C7.13968 23.921 6.94891 24 6.75 24H2.25C1.65326 24 1.08097 23.7629 0.65901 23.341C0.237053 22.919 0 22.3467 0 21.75L0 17.25C0 17.0511 0.0790176 16.8603 0.21967 16.7197C0.360322 16.579 0.551088 16.5 0.75 16.5V16.5ZM23.25 16.5C23.4489 16.5 23.6397 16.579 23.7803 16.7197C23.921 16.8603 24 17.0511 24 17.25V21.75C24 22.3467 23.7629 22.919 23.341 23.341C22.919 23.7629 22.3467 24 21.75 24H17.25C17.0511 24 16.8603 23.921 16.7197 23.7803C16.579 23.6397 16.5 23.4489 16.5 23.25C16.5 23.0511 16.579 22.8603 16.7197 22.7197C16.8603 22.579 17.0511 22.5 17.25 22.5H21.75C21.9489 22.5 22.1397 22.421 22.2803 22.2803C22.421 22.1397 22.5 21.9489 22.5 21.75V17.25C22.5 17.0511 22.579 16.8603 22.7197 16.7197C22.8603 16.579 23.0511 16.5 23.25 16.5ZM4.5 6.75C4.5 6.55109 4.57902 6.36032 4.71967 6.21967C4.86032 6.07902 5.05109 6 5.25 6C5.44891 6 5.63968 6.07902 5.78033 6.21967C5.92098 6.36032 6 6.55109 6 6.75V17.25C6 17.4489 5.92098 17.6397 5.78033 17.7803C5.63968 17.921 5.44891 18 5.25 18C5.05109 18 4.86032 17.921 4.71967 17.7803C4.57902 17.6397 4.5 17.4489 4.5 17.25V6.75ZM7.5 6.75C7.5 6.55109 7.57902 6.36032 7.71967 6.21967C7.86032 6.07902 8.05109 6 8.25 6C8.44891 6 8.63968 6.07902 8.78033 6.21967C8.92098 6.36032 9 6.55109 9 6.75V17.25C9 17.4489 8.92098 17.6397 8.78033 17.7803C8.63968 17.921 8.44891 18 8.25 18C8.05109 18 7.86032 17.921 7.71967 17.7803C7.57902 17.6397 7.5 17.4489 7.5 17.25V6.75ZM10.5 6.75C10.5 6.55109 10.579 6.36032 10.7197 6.21967C10.8603 6.07902 11.0511 6 11.25 6C11.4489 6 11.6397 6.07902 11.7803 6.21967C11.921 6.36032 12 6.55109 12 6.75V17.25C12 17.4489 11.921 17.6397 11.7803 17.7803C11.6397 17.921 11.4489 18 11.25 18C11.0511 18 10.8603 17.921 10.7197 17.7803C10.579 17.6397 10.5 17.4489 10.5 17.25V6.75ZM13.5 6.75C13.5 6.55109 13.579 6.36032 13.7197 6.21967C13.8603 6.07902 14.0511 6 14.25 6H15.75C15.9489 6 16.1397 6.07902 16.2803 6.21967C16.421 6.36032 16.5 6.55109 16.5 6.75V17.25C16.5 17.4489 16.421 17.6397 16.2803 17.7803C16.1397 17.921 15.9489 18 15.75 18H14.25C14.0511 18 13.8603 17.921 13.7197 17.7803C13.579 17.6397 13.5 17.4489 13.5 17.25V6.75ZM18 6.75C18 6.55109 18.079 6.36032 18.2197 6.21967C18.3603 6.07902 18.5511 6 18.75 6C18.9489 6 19.1397 6.07902 19.2803 6.21967C19.421 6.36032 19.5 6.55109 19.5 6.75V17.25C19.5 17.4489 19.421 17.6397 19.2803 17.7803C19.1397 17.921 18.9489 18 18.75 18C18.5511 18 18.3603 17.921 18.2197 17.7803C18.079 17.6397 18 17.4489 18 17.25V6.75Z" fill="white"/>
</svg>
