<svg width="18" height="18" viewBox="0 0 18 18" fill="none" xmlns="http://www.w3.org/2000/svg">
<path d="M9 12C10.6545 12 12 10.6545 12 9C12 7.3455 10.6545 6 9 6C7.3455 6 6 7.3455 6 9C6 10.6545 7.3455 12 9 12ZM9 7.5C9.813 7.5 10.5 8.187 10.5 9C10.5 9.813 9.813 10.5 9 10.5C8.187 10.5 7.5 9.813 7.5 9C7.5 8.187 8.187 7.5 9 7.5Z" fill="#637381"/>
<path d="M2.13373 12.102L2.88373 13.3995C3.28198 14.0872 4.24048 14.3453 4.93123 13.947L5.32798 13.7175C5.76189 14.0588 6.24029 14.3394 6.74998 14.5515V15C6.74998 15.8273 7.42273 16.5 8.24998 16.5H9.74998C10.5772 16.5 11.25 15.8273 11.25 15V14.5515C11.7595 14.3394 12.2379 14.0591 12.672 13.7183L13.0687 13.9478C13.761 14.3453 14.7172 14.0887 15.117 13.3995L15.8662 12.1027C16.065 11.7583 16.1189 11.349 16.0161 10.9648C15.9133 10.5806 15.6622 10.2529 15.318 10.0538L14.9392 9.83475C15.0198 9.28167 15.0198 8.71983 14.9392 8.16675L15.318 7.94775C15.6621 7.74842 15.913 7.42075 16.0158 7.03662C16.1186 6.65249 16.0648 6.24327 15.8662 5.89875L15.117 4.602C14.7187 3.912 13.761 3.65325 13.0687 4.053L12.672 4.2825C12.2381 3.94118 11.7597 3.6606 11.25 3.4485V3C11.25 2.17275 10.5772 1.5 9.74998 1.5H8.24998C7.42273 1.5 6.74998 2.17275 6.74998 3V3.4485C6.24047 3.66063 5.7621 3.94094 5.32798 4.28175L4.93123 4.05225C4.23823 3.654 3.28123 3.912 2.88298 4.60125L2.13373 5.898C1.93497 6.24247 1.88107 6.65176 1.98386 7.03595C2.08666 7.42014 2.33775 7.74781 2.68198 7.947L3.06073 8.166C2.97991 8.71881 2.97991 9.28044 3.06073 9.83325L2.68198 10.0522C2.33785 10.2517 2.08688 10.5795 1.9841 10.9638C1.88133 11.348 1.93514 11.7574 2.13373 12.102ZM4.62823 10.0335C4.54355 9.69551 4.50048 9.34844 4.49998 9C4.49998 8.6535 4.54348 8.3055 4.62748 7.9665C4.66704 7.8085 4.65403 7.64191 4.59042 7.49196C4.52682 7.34201 4.41608 7.21687 4.27498 7.1355L3.43273 6.648L4.18123 5.35125L5.03998 5.84775C5.18003 5.92879 5.34258 5.96221 5.50323 5.94301C5.66389 5.92381 5.81398 5.85301 5.93098 5.74125C6.43837 5.25867 7.05023 4.89961 7.71898 4.692C7.8726 4.6451 8.0071 4.55012 8.1027 4.42105C8.19829 4.29197 8.24992 4.13562 8.24998 3.975V3H9.74998V3.975C9.75005 4.13562 9.80168 4.29197 9.89727 4.42105C9.99286 4.55012 10.1274 4.6451 10.281 4.692C10.9496 4.89991 11.5614 5.25893 12.069 5.74125C12.1861 5.85279 12.3362 5.92344 12.4968 5.94264C12.6574 5.96183 12.8199 5.92855 12.96 5.84775L13.818 5.352L14.568 6.64875L13.725 7.1355C13.584 7.21697 13.4733 7.34211 13.4097 7.49203C13.3461 7.64195 13.3331 7.8085 13.3725 7.9665C13.4565 8.3055 13.5 8.6535 13.5 9C13.5 9.34575 13.4565 9.69375 13.3717 10.0335C13.3324 10.1916 13.3456 10.3582 13.4093 10.5081C13.473 10.658 13.5838 10.7831 13.725 10.8645L14.5672 11.3512L13.8187 12.648L12.96 12.1522C12.82 12.0711 12.6574 12.0376 12.4967 12.0568C12.336 12.076 12.1859 12.1469 12.069 12.2587C11.5616 12.7413 10.9497 13.1004 10.281 13.308C10.1274 13.3549 9.99286 13.4499 9.89727 13.579C9.80168 13.708 9.75005 13.8644 9.74998 14.025L9.75148 15H8.24998V14.025C8.24992 13.8644 8.19829 13.708 8.1027 13.579C8.0071 13.4499 7.8726 13.3549 7.71898 13.308C7.05036 13.1001 6.43857 12.7411 5.93098 12.2587C5.81421 12.1466 5.66402 12.0755 5.50322 12.0564C5.34241 12.0374 5.17977 12.0713 5.03998 12.153L4.18198 12.6495L3.43198 11.3527L4.27498 10.8645C4.41613 10.7831 4.52695 10.658 4.59068 10.5081C4.65441 10.3582 4.6676 10.1916 4.62823 10.0335Z" fill="#637381"/>
</svg>
