<svg width="13" height="14" viewBox="0 0 13 14" fill="none" xmlns="http://www.w3.org/2000/svg">
<path d="M11.1953 4.0848C11.1847 4.0848 11.1688 4.0848 11.153 4.0848C8.35586 3.80456 5.56406 3.69881 2.7987 3.97905L1.72005 4.0848C1.49798 4.10595 1.30234 3.94733 1.28119 3.72525C1.26004 3.50318 1.41866 3.31283 1.63545 3.29168L2.7141 3.18593C5.52705 2.9004 8.37701 3.01144 11.2323 3.29168C11.4491 3.31283 11.6077 3.50846 11.5865 3.72525C11.5707 3.93146 11.3962 4.0848 11.1953 4.0848Z" fill="#888B94"/>
<path d="M4.58641 3.55101C4.56526 3.55101 4.54411 3.55101 4.51767 3.54573C4.30617 3.50871 4.15812 3.3025 4.19513 3.091L4.31146 2.39834C4.39606 1.89074 4.51238 1.1875 5.74437 1.1875H7.1297C8.36697 1.1875 8.4833 1.91717 8.56261 2.40363L8.67893 3.091C8.71595 3.30779 8.5679 3.514 8.3564 3.54573C8.13961 3.58274 7.9334 3.43469 7.90167 3.22319L7.78535 2.53581C7.71132 2.0758 7.69546 1.98591 7.13498 1.98591H5.74966C5.18918 1.98591 5.17861 2.05994 5.0993 2.53052L4.97768 3.2179C4.94596 3.41354 4.77676 3.55101 4.58641 3.55101Z" fill="#888B94"/>
<path d="M8.13381 12.5552H4.73924C2.8939 12.5552 2.81987 11.5348 2.76171 10.7099L2.41802 5.3854C2.40216 5.16861 2.57136 4.97826 2.78815 4.9624C3.01022 4.95182 3.19529 5.11574 3.21115 5.33252L3.55484 10.657C3.613 11.4607 3.63415 11.7621 4.73924 11.7621H8.13381C9.24419 11.7621 9.26534 11.4607 9.31821 10.657L9.6619 5.33252C9.67776 5.11574 9.86811 4.95182 10.0849 4.9624C10.3017 4.97826 10.4709 5.16332 10.455 5.3854L10.1113 10.7099C10.0532 11.5348 9.97915 12.5552 8.13381 12.5552Z" fill="#888B94"/>
<path d="M7.31453 9.64713H5.55379C5.337 9.64713 5.15723 9.46735 5.15723 9.25057C5.15723 9.03378 5.337 8.854 5.55379 8.854H7.31453C7.53131 8.854 7.71109 9.03378 7.71109 9.25057C7.71109 9.46735 7.53131 9.64713 7.31453 9.64713Z" fill="#888B94"/>
<path d="M7.75906 7.53238H5.11531C4.89852 7.53238 4.71875 7.35261 4.71875 7.13582C4.71875 6.91903 4.89852 6.73926 5.11531 6.73926H7.75906C7.97585 6.73926 8.15563 6.91903 8.15563 7.13582C8.15563 7.35261 7.97585 7.53238 7.75906 7.53238Z" fill="#888B94"/>
</svg>
