<svg width="13" height="13" viewBox="0 0 13 13" fill="none" xmlns="http://www.w3.org/2000/svg">
<path d="M6.5 0.75C5.88193 0.75 5.27775 0.933278 4.76384 1.27666C4.24994 1.62004 3.8494 2.1081 3.61288 2.67911C3.37635 3.25013 3.31447 3.87847 3.43505 4.48466C3.55562 5.09085 3.85325 5.64767 4.29029 6.08471C4.72733 6.52175 5.28415 6.81938 5.89034 6.93995C6.49653 7.06053 7.12487 6.99865 7.69589 6.76212C8.2669 6.5256 8.75496 6.12506 9.09834 5.61116C9.44172 5.09725 9.625 4.49307 9.625 3.875C9.625 3.0462 9.29576 2.25134 8.70971 1.66529C8.12366 1.07924 7.3288 0.75 6.5 0.75ZM6.5 5.75C6.12916 5.75 5.76665 5.64003 5.45831 5.43401C5.14996 5.22798 4.90964 4.93514 4.76773 4.59253C4.62581 4.24992 4.58868 3.87292 4.66103 3.50921C4.73337 3.14549 4.91195 2.8114 5.17417 2.54917C5.4364 2.28695 5.77049 2.10838 6.13421 2.03603C6.49792 1.96368 6.87492 2.00081 7.21753 2.14273C7.56014 2.28464 7.85298 2.52496 8.05901 2.83331C8.26503 3.14165 8.375 3.50416 8.375 3.875C8.375 4.37228 8.17746 4.84919 7.82583 5.20083C7.47419 5.55246 6.99728 5.75 6.5 5.75ZM12.125 12.625V12C12.125 10.8397 11.6641 9.72688 10.8436 8.90641C10.0231 8.08594 8.91032 7.625 7.75 7.625H5.25C4.08968 7.625 2.97688 8.08594 2.15641 8.90641C1.33594 9.72688 0.875 10.8397 0.875 12V12.625H2.125V12C2.125 11.1712 2.45424 10.3763 3.04029 9.79029C3.62634 9.20424 4.4212 8.875 5.25 8.875H7.75C8.5788 8.875 9.37366 9.20424 9.95971 9.79029C10.5458 10.3763 10.875 11.1712 10.875 12V12.625H12.125Z" fill="#637381"/>
</svg>
