<svg width="15" height="15" viewBox="0 0 15 15" fill="none" xmlns="http://www.w3.org/2000/svg">
<path d="M10.7979 13.4326H4.96452C2.95785 13.4326 1.61035 12.0851 1.61035 10.0785V7.16178C1.61035 5.36512 2.71868 4.06429 4.43952 3.84845C4.60285 3.82512 4.78368 3.80762 4.96452 3.80762H10.7979C10.9379 3.80762 11.1187 3.81345 11.3054 3.84262C13.0262 4.04095 14.152 5.34762 14.152 7.16178V10.0785C14.152 12.0851 12.8045 13.4326 10.7979 13.4326ZM4.96452 4.68262C4.82452 4.68262 4.69035 4.69428 4.55619 4.71178C3.27285 4.87511 2.48535 5.80845 2.48535 7.16178V10.0785C2.48535 11.5835 3.45952 12.5576 4.96452 12.5576H10.7979C12.3029 12.5576 13.277 11.5835 13.277 10.0785V7.16178C13.277 5.79678 12.4779 4.85762 11.1829 4.70596C11.0429 4.68262 10.9204 4.68262 10.7979 4.68262H4.96452Z" fill="#888B94"/>
<path d="M4.49188 4.7173C4.35188 4.7173 4.22355 4.65314 4.13605 4.53647C4.03688 4.4023 4.02522 4.2273 4.10105 4.08147C4.20022 3.88314 4.34022 3.69064 4.52105 3.51564L6.41688 1.61396C7.38522 0.651465 8.96022 0.651465 9.92855 1.61396L10.9494 2.64648C11.3811 3.07231 11.6435 3.64398 11.6727 4.25064C11.6785 4.38481 11.626 4.51313 11.5269 4.60063C11.4277 4.68813 11.2935 4.72898 11.1652 4.70564C11.0485 4.68814 10.926 4.6823 10.7977 4.6823H4.96438C4.82438 4.6823 4.69022 4.69396 4.55605 4.71146C4.53855 4.7173 4.51522 4.7173 4.49188 4.7173ZM5.46605 3.8073H10.6927C10.6169 3.60897 10.4944 3.42814 10.3311 3.26481L9.30438 2.22648C8.68022 1.60814 7.65938 1.60814 7.02938 2.22648L5.46605 3.8073Z" fill="#888B94"/>
<path d="M13.7145 10.224H11.9645C11.0779 10.224 10.3604 9.50646 10.3604 8.61979C10.3604 7.73313 11.0779 7.01562 11.9645 7.01562H13.7145C13.9537 7.01562 14.152 7.21396 14.152 7.45313C14.152 7.69229 13.9537 7.89063 13.7145 7.89063H11.9645C11.562 7.89063 11.2354 8.21729 11.2354 8.61979C11.2354 9.02229 11.562 9.34896 11.9645 9.34896H13.7145C13.9537 9.34896 14.152 9.54729 14.152 9.78646C14.152 10.0256 13.9537 10.224 13.7145 10.224Z" fill="#888B94"/>
</svg>
